<svg id="White" xmlns="http://www.w3.org/2000/svg" width="111.31" height="54.49" viewBox="0 0 111.31 54.49"><defs><style>.cls-1,.cls-2,.cls-4{fill:#fff;}.cls-2,.cls-5{opacity:0.8;}.cls-3,.cls-4{opacity:0.35;}</style></defs><title>logo_white</title><g id="text"><path class="cls-1" d="M9.12,51.22a3.78,3.78,0,0,1-1.27,2.71,4.47,4.47,0,0,1-3,1A4,4,0,0,1,1.6,53.53,5.66,5.66,0,0,1,.43,49.74v-.65A6.4,6.4,0,0,1,1,46.38a4.07,4.07,0,0,1,1.55-1.8A4.34,4.34,0,0,1,4.86,44a4.35,4.35,0,0,1,3,1,4.06,4.06,0,0,1,1.3,2.78H6.94a2.23,2.23,0,0,0-.57-1.5,2.13,2.13,0,0,0-1.51-.46,1.87,1.87,0,0,0-1.64.79A4.41,4.41,0,0,0,2.65,49v.81a4.72,4.72,0,0,0,.52,2.53,1.83,1.83,0,0,0,1.65.8,2.17,2.17,0,0,0,1.52-.46,2.1,2.1,0,0,0,.57-1.44Z" transform="translate(-0.43 -0.43)"/><path class="cls-1" d="M19.32,49.68a6.44,6.44,0,0,1-.56,2.76,4.19,4.19,0,0,1-1.59,1.83,4.41,4.41,0,0,1-2.38.64,4.44,4.44,0,0,1-2.37-.64,4.24,4.24,0,0,1-1.61-1.82,6.25,6.25,0,0,1-.58-2.72v-.53a6.4,6.4,0,0,1,.57-2.77,4.23,4.23,0,0,1,1.6-1.84A4.41,4.41,0,0,1,14.78,44a4.42,4.42,0,0,1,2.37.64,4.23,4.23,0,0,1,1.6,1.84,6.39,6.39,0,0,1,.57,2.76Zm-2.23-.48a4.49,4.49,0,0,0-.6-2.55,2,2,0,0,0-1.71-.87,2,2,0,0,0-1.71.86,4.44,4.44,0,0,0-.61,2.52v.52a4.54,4.54,0,0,0,.6,2.53,2,2,0,0,0,1.73.9,1.93,1.93,0,0,0,1.7-.87,4.52,4.52,0,0,0,.6-2.53Z" transform="translate(-0.43 -0.43)"/><path class="cls-1" d="M29.59,54.77h-2.2l-4.28-7v7h-2.2V44.1h2.2l4.28,7v-7h2.19Z" transform="translate(-0.43 -0.43)"/><path class="cls-1" d="M37,52a1.13,1.13,0,0,0-.44-1,5.79,5.79,0,0,0-1.58-.7,11.17,11.17,0,0,1-1.81-.73,3,3,0,0,1-1.82-2.64,2.57,2.57,0,0,1,.49-1.54,3.17,3.17,0,0,1,1.4-1.06,5.27,5.27,0,0,1,2-.38,4.79,4.79,0,0,1,2,.41,3.24,3.24,0,0,1,1.39,1.17,3.06,3.06,0,0,1,.49,1.71H37a1.44,1.44,0,0,0-.46-1.14,1.89,1.89,0,0,0-1.3-.41A2,2,0,0,0,34,46a1.08,1.08,0,0,0-.45.9,1,1,0,0,0,.52.87,5.92,5.92,0,0,0,1.54.66,6.66,6.66,0,0,1,2.73,1.4A2.79,2.79,0,0,1,39.24,52a2.57,2.57,0,0,1-1,2.17,4.59,4.59,0,0,1-2.82.79,5.45,5.45,0,0,1-2.24-.45,3.55,3.55,0,0,1-1.54-1.23,3.16,3.16,0,0,1-.53-1.82h2.2q0,1.77,2.11,1.76a2,2,0,0,0,1.22-.32A1,1,0,0,0,37,52Z" transform="translate(-0.43 -0.43)"/><path class="cls-1" d="M48.76,45.88H45.49v8.88h-2.2V45.88H40.07V44.1h8.69Z" transform="translate(-0.43 -0.43)"/><path class="cls-1" d="M54,50.86H52.21v3.9H50V44.1h4a4.48,4.48,0,0,1,2.92.84,2.91,2.91,0,0,1,1,2.38,3.29,3.29,0,0,1-.47,1.82A3.22,3.22,0,0,1,56,50.31l2.31,4.36v.1H56Zm-1.75-1.78H54a1.82,1.82,0,0,0,1.28-.42,1.51,1.51,0,0,0,.45-1.16,1.61,1.61,0,0,0-.43-1.19A1.78,1.78,0,0,0,54,45.88H52.21Z" transform="translate(-0.43 -0.43)"/><path class="cls-1" d="M67.65,44.1v7a3.6,3.6,0,0,1-1.09,2.77,4.22,4.22,0,0,1-3,1,4.27,4.27,0,0,1-3-1,3.54,3.54,0,0,1-1.12-2.72V44.1h2.2v7a2,2,0,0,0,.5,1.53,1.92,1.92,0,0,0,1.39.48q1.85,0,1.88-1.95V44.1Z" transform="translate(-0.43 -0.43)"/><path class="cls-1" d="M77.83,51.22a3.78,3.78,0,0,1-1.27,2.71,4.47,4.47,0,0,1-3,1,4,4,0,0,1-3.23-1.38,5.66,5.66,0,0,1-1.18-3.79v-.65a6.4,6.4,0,0,1,.54-2.71,4.07,4.07,0,0,1,1.55-1.8,4.84,4.84,0,0,1,5.31.36,4.06,4.06,0,0,1,1.3,2.78h-2.2a2.23,2.23,0,0,0-.57-1.5,2.13,2.13,0,0,0-1.51-.46,1.87,1.87,0,0,0-1.64.79A4.41,4.41,0,0,0,71.36,49v.81a4.72,4.72,0,0,0,.52,2.53,1.83,1.83,0,0,0,1.65.8,2.17,2.17,0,0,0,1.52-.46,2.1,2.1,0,0,0,.57-1.44Z" transform="translate(-0.43 -0.43)"/><path class="cls-1" d="M87.08,45.88H83.82v8.88h-2.2V45.88H78.4V44.1h8.69Z" transform="translate(-0.43 -0.43)"/><path class="cls-1" d="M90.67,54.77h-2.2V44.1h2.2Z" transform="translate(-0.43 -0.43)"/><path class="cls-1" d="M101.47,49.68a6.44,6.44,0,0,1-.56,2.76,4.19,4.19,0,0,1-1.59,1.83,4.71,4.71,0,0,1-4.74,0A4.24,4.24,0,0,1,93,52.46a6.25,6.25,0,0,1-.58-2.72v-.53A6.41,6.41,0,0,1,93,46.44a4.22,4.22,0,0,1,1.61-1.84,4.7,4.7,0,0,1,4.74,0,4.23,4.23,0,0,1,1.6,1.84,6.38,6.38,0,0,1,.57,2.76Zm-2.23-.48a4.49,4.49,0,0,0-.6-2.55,2.12,2.12,0,0,0-3.42,0,4.43,4.43,0,0,0-.61,2.52v.52a4.54,4.54,0,0,0,.6,2.53,2.1,2.1,0,0,0,3.43,0,4.51,4.51,0,0,0,.6-2.53Z" transform="translate(-0.43 -0.43)"/><path class="cls-1" d="M111.74,54.77h-2.2l-4.28-7v7h-2.2V44.1h2.2l4.28,7v-7h2.19Z" transform="translate(-0.43 -0.43)"/></g><g id="Edifice"><g id="Right_edifice" data-name="Right edifice"><polygon class="cls-2" points="75.42 0 75.42 6.34 58.06 10.99 58.06 5.37 75.42 0"/><polygon class="cls-2" points="75.42 7.25 75.42 12.45 58.06 17.1 58.06 11.9 75.42 7.25"/><polygon class="cls-2" points="75.42 13.37 75.42 19.07 58.06 23.72 58.06 18.02 75.42 13.37"/><polygon class="cls-2" points="75.42 19.99 75.42 25.44 58.06 30.09 58.06 24.64 75.42 19.99"/><polygon class="cls-2" points="75.42 32.7 67.58 35.55 58.06 32.09 58.06 31.01 75.42 26.36 75.42 32.7"/><g class="cls-3"><polygon class="cls-1" points="93.6 5.66 93.6 11.31 76.31 6.36 76.31 0 93.6 5.66"/><polygon class="cls-1" points="76.31 7.28 93.6 12.24 93.6 17.36 76.31 12.41 76.31 7.28"/><polygon class="cls-1" points="76.31 13.33 93.6 18.29 93.6 24.09 76.31 19.13 76.31 13.33"/><polygon class="cls-1" points="76.31 20.05 93.6 25.01 93.6 30.39 76.31 25.42 76.31 20.05"/><polygon class="cls-1" points="93.6 31.31 93.6 33.26 87.29 30.97 83.74 29.67 80.19 30.96 80.19 30.96 76.31 32.38 76.31 26.35 93.6 31.31"/></g></g><g id="Left_edifice" data-name="Left edifice"><polygon class="cls-4" points="46.44 4.28 46.44 29.17 46.27 29.23 41.57 30.94 41.57 1.79 46.44 4.28"/><g class="cls-5"><path class="cls-1" d="M41.1,2.21V14.08A77,77,0,0,1,29.92,18.6,77,77,0,0,1,18,21.35v-8.6A75.27,75.27,0,0,0,29.92,8.5,75.27,75.27,0,0,0,41.1,2.21Z" transform="translate(-0.43 -0.43)"/><path class="cls-1" d="M18,22.29A66.77,66.77,0,0,0,29.92,19.7,66.77,66.77,0,0,0,41.1,15v11.8a61,61,0,0,1-11.18,3.07A61,61,0,0,1,18,30.78Z" transform="translate(-0.43 -0.43)"/><path class="cls-1" d="M41.1,27.72v4L28.63,36.24H18V31.69a58.83,58.83,0,0,0,11.95-.85A58.51,58.51,0,0,0,41.1,27.72Z" transform="translate(-0.43 -0.43)"/></g></g><polygon class="cls-4" points="111.31 39.17 111.31 39.57 100 39.57 83.75 35.64 67.58 39.52 48.24 34.48 28.63 39.62 0 39.62 0 39.24 17.55 38.24 28.63 38.24 48.24 31.1 67.58 38.14 83.75 32.26 100 38.17 111.31 39.17"/></g></svg>